# xmcd
#
# Track frame offsets:
#	150
#	16277
#	33150
#
# Disc length: 643 seconds
#
# Revision: 0
# Processed by: cddbd v1.4PL0 Copyright (c) Steve Scherf et al.
# Submitted via: dBpowerAMP V4.0
#
DISCID=16028103
DTITLE=Jimmy Nail  - EP
DYEAR=1900
DGENRE=Country
TTITLE0=Calling Out Your Name
TTITLE1=Fear No Evil
TTITLE2=Calling Out Yor Name (Radio Edit)
EXTD=
EXTT0=
EXTT1=
EXTT2=
PLAYORDER=
